<svg xmlns="http://www.w3.org/2000/svg" enable-background="new 0 0 512 512" viewBox="0 0 512 512" id="Microscope">
  <path fill="#34a853" d="M272.17,356.87c-7.42-7.42-17.28-11.51-27.78-11.51c-21.65,0-39.27,17.63-39.27,39.29v72.77
		c0,0.01,0,0.01,0,0.01c0,0.01,0,0.01,0,0.01v36.14h78.55V384.66C283.67,374.16,279.59,364.29,272.17,356.87z M259.64,474.65h-30.59
		c-3.23,0-5.85-2.63-5.85-5.85c0-3.24,2.62-5.85,5.85-5.85h30.59c3.24,0,5.85,2.62,5.85,5.85
		C265.49,472.02,262.88,474.65,259.64,474.65z M259.64,436.99h-30.59c-3.23,0-5.85-2.62-5.85-5.86c0-3.23,2.62-5.85,5.85-5.85h30.59
		c3.24,0,5.85,2.62,5.85,5.85C265.49,434.36,262.88,436.99,259.64,436.99z M244.4,406.53c-13.33,0-24.19-10.84-24.19-24.19
		c0-13.33,10.85-24.19,24.19-24.19c13.34,0,24.19,10.85,24.19,24.19C268.58,395.68,257.74,406.53,244.4,406.53z" class="color231f20 svgShape"></path>
  <path fill="#34a853" d="M256.88,382.34c0,6.89-5.6,12.48-12.48,12.48c-6.88,0-12.47-5.6-12.47-12.48c0-6.88,5.6-12.47,12.47-12.47
		C251.28,369.87,256.88,375.46,256.88,382.34z" class="color231f20 svgShape"></path>
  <rect width="25.06" height="30.29" x="471.85" y="463.29" fill="#34a853" class="color231f20 svgShape"></rect>
  <rect width="164.77" height="30.29" x="295.38" y="463.29" fill="#34a853" class="color231f20 svgShape"></rect>
  <rect width="130.46" height="30.29" x="62.96" y="463.29" fill="#34a853" class="color231f20 svgShape"></rect>
  <rect width="36.18" height="30.29" x="15.08" y="463.29" fill="#34a853" class="color231f20 svgShape"></rect>
  <path fill="#34a853" d="M193.42,400.93v10.57H83.6c-2.92,0-5.29-2.37-5.29-5.28c0-2.92,2.37-5.29,5.29-5.29H193.42z" class="color231f20 svgShape"></path>
  <polygon fill="#34a853" points="131.24 357.57 131.24 389.23 121.43 389.23 121.43 352.81" class="color231f20 svgShape"></polygon>
  <polygon fill="#34a853" points="173.38 355.17 169.51 363.15 66.05 312.88 69.92 304.92" class="color231f20 svgShape"></polygon>
  <path fill="#34a853" d="M442.79,310.05C426.11,370.1,371.98,411.5,308.95,411.5c-4.55,0-9.09-0.23-13.57-0.66v-25.82
		c4.51,0.54,9.05,0.84,13.57,0.84c49.45,0,93.13-32.21,107.99-78.92L442.79,310.05z" class="color231f20 svgShape"></path>
  <rect width="24.56" height="42.01" x="420.44" y="263.67" fill="#34a853" transform="rotate(-83.125 432.71 284.677)" class="color231f20 svgShape"></rect>
  <path fill="#34a853" d="M447.53 262.3l-26.06-3.14c-3.98-33.78-22.8-63.76-51.45-82.07 5.38-7.03 8.64-15.51 9.34-24.37C418.76 175.84 444.2 216.64 447.53 262.3zM367.36 143.62c-2.7-16.6-16.9-28.66-33.77-28.66-18.86 0-34.19 15.34-34.19 34.21 0 18.85 15.33 34.19 34.19 34.19 8.68 0 16.97-3.27 23.32-9.19 7.03-6.54 10.88-15.42 10.88-25.01C367.8 147.3 367.65 145.43 367.36 143.62zM333.6 171.31c-12.22 0-22.14-9.94-22.14-22.14s9.93-22.14 22.14-22.14c12.21 0 22.14 9.94 22.14 22.14S345.81 171.31 333.6 171.31z" class="color231f20 svgShape"></path>
  <path fill="#34a853" d="M344.03 149.17c0 5.75-4.68 10.44-10.43 10.44-5.76 0-10.44-4.69-10.44-10.44s4.68-10.44 10.44-10.44C339.36 138.73 344.03 143.42 344.03 149.17zM220.71 240.13l-11.49 11.5c-.64.38-4.22.02-7.87-3.63l-47.66-47.66c-3.65-3.65-4.02-7.23-3.65-7.85l11.52-11.52L220.71 240.13zM259.69 246.84l-2.41 2.41c-1.46 1.46-3.39 2.26-5.45 2.26-2.05 0-3.99-.8-5.44-2.26l-80.7-80.69c0-.01 0-.01-.01-.01l-10.87-10.87c-3-3-3-7.88 0-10.88l2.42-2.42c1.5-1.5 3.47-2.25 5.44-2.25 1.97 0 3.95.75 5.45 2.25l91.58 91.59C262.69 238.96 262.69 243.84 259.69 246.84z" class="color231f20 svgShape"></path>
  <path fill="#34a853" d="M379.58 96.5l-16.99 16.99c-7.93-6.43-18.05-10.23-28.99-10.23-25.31 0-45.91 20.59-45.91 45.92 0 10.95 3.87 21.02 10.29 28.91l-39.8 39.8-35.93-35.93 42.54-41.61c2.31-2.26 2.35-5.97.09-8.28-2.26-2.31-5.97-2.35-8.28-.09l-42.63 41.7-9.28-9.28 100.7-98.52c2.31-2.27 2.35-5.97.09-8.28-2.26-2.31-5.96-2.36-8.27-.09l-100.8 98.61-10.87-10.87 121.4-121.4c.62-.62 1.45-.97 2.33-.97.89 0 1.72.35 2.34.97l11.26 11.27c.01.01.02.02.03.03.01.01.02.02.03.03l45.34 45.34c0 .01 0 .01 0 .01l11.31 11.3C380.86 93.13 380.86 95.21 379.58 96.5zM377.32 63.2l-4.9 4.91-37.09-37.09 4.9-4.91c4.95-4.95 11.55-7.69 18.55-7.69s13.59 2.73 18.54 7.69C387.55 36.34 387.55 52.98 377.32 63.2z" class="color231f20 svgShape"></path>
</svg>
