<svg xmlns="http://www.w3.org/2000/svg" enable-background="new 0 0 68 68" viewBox="0 0 68 68" id="Prescription">
  <path d="M42.5,58.7L33,64.1c-1,0.6-2.2,0.5-3.1-0.1c-1-0.7-1.5-1.8-1.3-2.9l1.4-10.5c0-0.5,0.2-0.9,0.5-1.3
		c13.8-22.2,12.1-18.1,11-18.1H7.5c-0.6,0-1-0.4-1-1s0.4-1,1-1h33.8c0.6,0,1,0.4,1,1c0,0.5-1.3,2.2,6.9-10.7v-3.5
		c0-2.4-1.9-4.3-4.3-4.3h-1v4.9c0,1.7-1.3,3-3,3H9.8c-1.7,0-3-1.3-3-3v-4.9h-1c-2.4,0-4.3,1.9-4.3,4.3v46.7C1.5,65,3.4,67,5.8,67H45
		c2.4,0,4.3-2,4.3-4.3V48.6l-5.8,9.1C43.2,58.2,42.8,58.5,42.5,58.7z M7.5,21.4H35c0.6,0,1,0.4,1,1s-0.4,1-1,1H7.5c-0.6,0-1-0.4-1-1
		S7,21.4,7.5,21.4z M7.5,37h26.4c0.6,0,1,0.4,1,1s-0.4,1-1,1H7.5c-0.6,0-1-0.4-1-1S7,37,7.5,37z M7.5,44.8h22c0.6,0,1,0.4,1,1
		s-0.4,1-1,1h-22c-0.6,0-1-0.4-1-1S7,44.8,7.5,44.8z M26.6,62.5H7.5c-0.6,0-1-0.4-1-1s0.4-1,1-1h19.1c0.6,0,1,0.4,1,1
		S27.2,62.5,26.6,62.5z M26.6,54.7H7.5c-0.6,0-1-0.4-1-1s0.4-1,1-1h19.1c0.6,0,1,0.4,1,1S27.2,54.7,26.6,54.7z" fill="#34a853" class="color000000 svgShape"></path>
  <circle cx="25.4" cy="9.2" r="1.6" fill="#34a853" class="color000000 svgShape"></circle>
  <path d="M9.8 17.5H41c.6 0 1-.5 1-1V8.6c0-.5-.4-1-1-1h-4.7C34.2 3.6 30.1 1 25.5 1h-.3c-4.6 0-8.7 2.6-10.8 6.6H9.8c-.6 0-1 .5-1 1v7.9C8.8 17 9.3 17.5 9.8 17.5zM25.4 5.6c2 0 3.6 1.6 3.6 3.6s-1.6 3.6-3.6 3.6-3.6-1.6-3.6-3.6S23.4 5.6 25.4 5.6zM65 9.2c-1.5-.9-3.4-.5-4.4 1l-1.7 2.7c2.2.3 4.2 1.6 5.4 3.4l1.7-2.7C67 12 66.5 10.1 65 9.2zM32 50.5c-.1.1-.1.3-.1.4l-1.4 10.5c-.1.4.1.8.4 1 .3.2.7.2 1.1 0l9.5-5.4c.1-.1.3-.2.4-.3L59 29.6l-9.8-6.2L32 50.5z" fill="#34a853" class="color000000 svgShape"></path>
  <path d="M62.7,23.6c1.7-2.8,0.8-6.3-1.8-8c-2.6-1.7-6.2-1-8,1.8l-2.7,4.3l9.8,6.2l1.4-2.3c0.9,1,1.2,2.4,0.7,3.6
		c-0.2,0.6,0.3-0.3-8,12.9c-0.3,0.5-0.2,1.1,0.3,1.4c0.4,0.3,1.1,0.2,1.4-0.3c8.2-13,7.8-12.3,8.1-12.9c1-2.2,0.4-4.8-1.3-6.4
		L62.7,23.6z" fill="#34a853" class="color000000 svgShape"></path>
</svg>
